# xmcd
#
# Track frame offsets:
# 150
# 16252
# 33389
# 49144
# 66386
# 84400
# 105637
# 128349
# 148014
# 163877
# 181911
# 209133
#
# Disc length: 2996 seconds
#
#
# Revision: 0
# Processed by: cddbd v1.4PL0 Copyright (c) Steve Scherf et al.
# Submitted via: FreeRIP 2.35 
#
DISCID=a70bb20c
DTITLE=Blue Rodeo - The Days In Between
DYEAR=1900
DGENRE=
TTITLE0=Cinema Song
TTITLE1=The Seeker
TTITLE2=Begging You to Let Me In
TTITLE3=Bitter Fruit
TTITLE4=Somebody Waits
TTITLE5=Andrea
TTITLE6=Sad Nights
TTITLE7=This Road
TTITLE8=The Days In Between
TTITLE9=Always Getting Better
TTITLE10=Rage
TTITLE11=Truscott
EXTD=
EXTT0=
EXTT1=
EXTT2=
EXTT3=
EXTT4=
EXTT5=
EXTT6=
EXTT7=
EXTT8=
EXTT9=
EXTT10=
EXTT11=
PLAYORDER=
